# xmcd
#
# Track frame offsets:
# 150
# 11022
# 23735
# 34572
# 51112
# 62697
# 80247
# 91725
# 107547
# 122960
# 134775
# 156375
# 171935
# 186110
# 201465
# 204897
# 220347
# 236587
# 255187
# 279262
#
# Disc length: 3989 seconds
#
#
# Revision: 3
# Processed by: cddbd v1.5.1PL0 Copyright (c) Steve Scherf et al.
# Submitted via: FreeRIP 2.943 
#
DISCID=190f9314
DTITLE=Rory Block - Best Blues and Originals
DYEAR=1988
DGENRE=Blues
TTITLE0=Walkin' Blues
TTITLE1=Travelin' Blues
TTITLE2=Got To Have You Be My Man
TTITLE3=The Water Is Wide
TTITLE4=Crossroad Blues
TTITLE5=Ain't No Way To Do
TTITLE6=Catastrophe Rag
TTITLE7=Lovin' Fool
TTITLE8=Sit Down on the Banks
TTITLE9=God's Gift to Women
TTITLE10=The Golden Vanity
TTITLE11=El Vuelo Del Alma
TTITLE12=Future Blues
TTITLE13=M and O Blues
TTITLE14=Foreign Lander
TTITLE15=Moon's Goin' Down
TTITLE16=Send the Man Back Home
TTITLE17=Lovin' Whiskey
TTITLE18=Gypsie Boy
TTITLE19=Goin' Back to the County
EXTD=
EXTT0=
EXTT1=
EXTT2=
EXTT3=
EXTT4=
EXTT5=
EXTT6=
EXTT7=
EXTT8=
EXTT9=
EXTT10=
EXTT11=
EXTT12=
EXTT13=
EXTT14=
EXTT15=
EXTT16=
EXTT17=
EXTT18=
EXTT19=
PLAYORDER=
